/* XPM */
static char *pacmanup1736435950[] = {
/* columns rows colors chars-per-pixel */
"64 64 2 1 ",
"  c black",
". c #FFFF0B",
/* pixels */
"                                                                ",
"                                                                ",
"                                                                ",
"                                                                ",
"                                                                ",
"                                                                ",
"            ....                               ....             ",
"           ......                             ......            ",
"          .......                             .......           ",
"         .........                           .........          ",
"        ..........                           ..........         ",
"       ............                         ............        ",
"      .............                         .............       ",
"     ...............                       ...............      ",
"     ...............                       ...............      ",
"    .................                     .................     ",
"    .................                     .................     ",
"   ...................                   ...................    ",
"   ...................                   ...................    ",
"  .....................                 .....................   ",
"  .....................                 .....................   ",
"  ......................               ......................   ",
" .......................               .......................  ",
" ........................             ........................  ",
" ........................             ........................  ",
" .........................           .........................  ",
"..........................           .......................... ",
"...........................         ........................... ",
"...........................         ........................... ",
"............................       ............................ ",
"............................       ............................ ",
".............................     ............................. ",
".............................     ............................. ",
"..............................   .............................. ",
"..............................   .............................. ",
"............................... ............................... ",
"............................... ............................... ",
"............................................................... ",
"............................................................... ",
" .............................................................  ",
" .............................................................  ",
" .............................................................  ",
" .............................................................  ",
"  ...........................................................   ",
"  ...........................................................   ",
"  ...........................................................   ",
"   .........................................................    ",
"   .........................................................    ",
"    .......................................................     ",
"    .......................................................     ",
"     .....................................................      ",
"     .....................................................      ",
"      ...................................................       ",
"       .................................................        ",
"        ...............................................         ",
"         .............................................          ",
"          ...........................................           ",
"           .........................................            ",
"            .......................................             ",
"              ...................................               ",
"                ...............................                 ",
"                  ...........................                   ",
"                     .....................                      ",
"                         .............                          "
};