/* XPM */
static char *_6fb4977067d4a06a1291d56e8b496bflAxmwURkE638tK2f[] = {
/* columns rows colors chars-per-pixel */
"56 52 16 1 ",
"  c None",
". c #0000FD",
"X c #0000FE",
"o c #0105FE",
"O c #001FFF",
"+ c #016AFE",
"@ c #01CCFF",
"# c #01F1FF",
"$ c #01FEF9",
"% c #30FFFB",
"& c #75F0FF",
"* c #99F4FF",
"= c #BDFFFF",
"- c #D0FEFF",
"; c #E7FFFF",
": c #FAFEFF",
/* pixels */
"                                XX                      ",
"                     X          XX                      ",
"                              XXXX                      ",
"                    X  X     XXXXX                      ",
"                    XoXXXXX  XXXX                       ",
"                    X$@oXXX XXXXX  XX                   ",
"                   Xo++OoXXXo+OXXXXooX                  ",
"                   X+oOOXXXXo$@oooo@$@X                 ",
"           XoX    XX+OOoXoOoo+++%@o+#$oX                ",
"       X  XO@XXXX XXXooO+++oXoo+$+oooOXX                ",
"        XXXXXXX+oXXXoO+#$$@OoXooooooXoooXXX             ",
"        X@oXXXXXXXoXo+$&%&%+oXoXXXXXXo++oO+XX           ",
"        X+oX XXXXoooO@%&$##+oXXoXXXXXo$$+$*OoX          ",
"        XXXXXXXXXooo+&-=$+OOOoooooXXoO@@+@$+X           ",
"      X    Xo@Oooooo+&=*@O++++OO+OOOoO$$OOoXX           ",
"        Xo Xo#+ooooo+@#@+@$$$#O+@O@%+O@@OooXX           ",
"  X      XXXXoOOoooOO+@@@%=-=@+OOO+$#@+OOoo+oXXX        ",
"        XXoOoo++OOO++@@@$**=*@OO+OO+$*$OooXoXXXOX       ",
"        XXO%#+#@++@#$%%$&-=&$@+++++@&=$+ooXXXXX@o       ",
"       XXX@**&$++$&%&*&%&-;*%@@$$%&$$&%+oooXXXXXX       ",
"      XXO@+#$%@O+#%%&*====-;-&%*&*-%@$%@OoooXXXXX       ",
"     XXo@$+@@+OoO+@$*;::;;;::-**%$$@+O+%@OoooXoooX      ",
"   X XX+++@$@ooooO+$*;::;;::::-&$@+OOoO+++@Ooo+$+X X    ",
"  XoXXXOOo+$@OooooO#=;::::::::;*&%@+OO+oO@%+ooO@OXX     ",
"   o+XXXXXo@$#OoooO#&;::::::::;;;=%@+++oO++ooooXXXoX    ",
"   XXXoXXXoO@@OO+@##&;::::;::::-*%%%#++OooooXOoXXXX     ",
"    Xo+oXXXoOO@+@&-&&-:::;;:::;*$#%&&#%@ooXXXOXXXXX XX  ",
"    XoOooXXooO@O@=;**-:::;;::;;&#$%$#@@+ooXXXXo+XXoXXo  ",
"   XXXooOXXXoOOO@&&&=;:::;;:;=*$#&;&@+OOoXXXoooo+OoX    ",
"   XXXXooOoOoOO+@$$%-::::;==&$@@%=;*@OOOoXXXooXO#OX     ",
"     XX@$++@OO+#$@@#&--;;-&%$#@@%**%@+@@OoXXoooXXX      ",
"     Xo#$+++@@#%*#++$&=;=*%%&$#$%*%#++$&@ooooXXXXX      ",
"     Xo##OO+$&%$$@O+%&&-=%%=;*&%&&#@O+$*$O++ooXXXX      ",
"     X@&$+O@%&$@##OO++@##@#*-=-*%$@++@@@+OOOOOXX@+X     ",
"     X+%@OO#%$@@#$+OoOOO+@#$&*=&#@@@+++OooOOoXXX+oX     ",
"     XoOooO#&#@++@+OooO+@#$%**$#@@@@##+OOoXoX XXX       ",
"     XXXXXX+%+OO+++OOO@%*=&&=&#@@+@@$%+OXXX XX   X      ",
"         XXoooXooO++++#*-=*&*%#@++++@+OoX XX X  XXX     ",
"         XO+XXoXoooOOO@$%%%*-&#++++++OooX           X   ",
"         XoOXXO+OoXXooO++@$*-*@+O+@#+oXXX   XXX         ",
"         XXoXo@%OXXXXOOOO+&;=%@OO+&*@oXX  XX            ",
"         XXXXXooXXXXXXoOO+%*%@OOOO@#OXOX X+X       X    ",
"         XXXXX      XX++O+@@#@oOoXOoXXX  XXX            ",
"           X      XXXo#@Ooo+$@ooOoXX                    ",
"                  XXXX++ooXO+oooOoXX  XOo               ",
"                    XXXoOooXXooO+oX   X+oX              ",
"                   XXXoXoo+Ooo@+oXOX XXX                ",
"                   o$@XXooOOoX@OoXXX o+X                ",
"                   o#++#oXXX  XX#+X  XoX             X  ",
"                   XXXO@XX     XXX                      ",
"                      XXX                               ",
"                                                        "
};
