/* XPM */
static char *sprite__5_1736346618[] = {
/* columns rows colors chars-per-pixel */
"39 62 84 1 ",
"  c black",
". c #020202",
"X c gray1",
"o c #050404",
"O c #0A0909",
"+ c gray5",
"@ c #0E0D0D",
"# c #111010",
"$ c #151414",
"% c #181717",
"& c #191818",
"* c #1B1919",
"= c #1D1B1B",
"- c #1E1C1C",
"; c #222020",
": c #232121",
"> c #2B2929",
", c #2F2D2D",
"< c #322F2F",
"1 c #353232",
"2 c #363333",
"3 c #393535",
"4 c #3A3636",
"5 c #3B3737",
"6 c #3C3838",
"7 c #3E3A3A",
"8 c #413E3E",
"9 c #433E3E",
"0 c #433F3F",
"q c #4A4545",
"w c #4B4646",
"e c #4C4848",
"r c #504B4B",
"t c #544E4E",
"y c #544F4F",
"u c #575252",
"i c #5A5555",
"p c #5C5757",
"a c #615B5B",
"s c #656060",
"d c #696262",
"f c #6B6464",
"g c #6D6767",
"h c #716A6A",
"j c #746D6D",
"k c #756D6D",
"l c #777070",
"z c #7B7373",
"x c #817979",
"c c #817A7A",
"v c #857D7D",
"b c #888080",
"n c #8B8383",
"m c #8B8484",
"M c #8E8585",
"N c #8F8686",
"B c #968C8C",
"V c #978F8F",
"C c #999090",
"Z c #9C9393",
"A c #A09696",
"S c #A39999",
"D c #A69C9C",
"F c #AA9F9F",
"G c #ACA1A1",
"H c #AFA5A5",
"J c #B4A9A9",
"K c #B5A9A9",
"L c #B7ACAC",
"P c #BAAFAF",
"I c #BDB1B1",
"U c #BEB2B2",
"Y c #C1B5B5",
"T c #C2B7B7",
"R c #C4B8B8",
"E c #C7BABA",
"W c #C7BBBB",
"Q c #C8BBBB",
"! c #CBBFBF",
"~ c #CDC0C0",
"^ c #D2C5C5",
"/ c #D4C7C7",
"( c #D5C8C8",
") c None",
/* pixels */
"))))))))))))))))))))                )))",
"))                                    )",
")                 #***-<1110rrr61-    )",
")  3fjvvCDLPPQ((((((((((((((((((((Uq  )",
")  A(((((((((((((((((((((((((((((((M  )",
")  Z(((((((((((((((((((((((((((((((M  )",
")  c(((((((((((((((((((((((((((((((M  )",
")  f(((((((((((((((((((((((((((((((M  )",
")  f(((((((((((((((((((((((((((((((M  )",
")  g(((((((((((((((((((((((((((((((c  )",
")  c(((((((((((((((((((((((((((((((d  )",
")  v(((((((((((((((((((((((((((((((d  )",
")  B(((((((((((((((((((((((((((((((d  )",
")  S(((((((((((((((((((((((((((((((i  )",
")  L((((((((((((((((((((((((((((((^0  )",
")  P(((((((((((((((((((((((((((((((0  )",
")  ~(((((((((((((((((((((((((((((((,  )",
"   ((((((((((((((((((((((((((((((((-  )",
"   ((((((((((((((((((((((((((((((((*  )",
") %((((((((((((((((((((((((((((((((o  )",
") >((((((((((((((((((((((((((((((((   )",
") 6(((((((((((((((((((((((((((((((R  ))",
") :(((((((((((((((((((((((((((((((R  ))",
") +(((((((((((((((((((((((((((((((J  ))",
")  (((((((((((((((((((((((((((((((G  ))",
")  Y((((((((((((((((((((((((((((((H  ))",
")  I((((((((((((((((((((((((((((((R   )",
")  L(((((((((((((((((((((((((((((/R   )",
")  S((((((((((((((((((((((((((((((R   )",
")  m(((((((((((((((((((((((YAY((((Y   )",
")  c((((((((((((((((((((((j  #Y(((R   )",
")  f(((((((((((((((((((((P esol((((   )",
")  z(((((((((((((((((((((N CC+g((((   )",
")  Z(((((((((((((((((((((N mp b((((   )",
")  A(((((((((((((((((((((J $ 1^((((   )",
")  A(((((((((((((((((((((/y+qR(((((   )",
")  A(((((((((((((((((((((((((((((((   )",
")  A(((((((((((((((((((((((((((((((   )",
")  A(((((((((((((((((((((((((((((((   )",
")  A(((((((((((((((((((((((((((((((   )",
")  A(((((((((((((((((((((((((((((((   )",
")  J(((((((((((((((((((((((((((((((   )",
")  P(((((((((((((((((((((((((((((((   )",
")  I(((((((((((((((((((((((((((((((   )",
")  P((((((((((((((((((((((((((((((~   )",
")  Y((((((((((((((((((((((((((((((R   )",
")  (((((((((((((((((((((((((((((((Y   )",
"   (((((((((((((((((((((((((((((((R  ))",
"   (((((((((((((((((((((((((((((((R  ))",
"   (((((((((((((((((((((((((((((((R  ))",
"   !((((((((((((((((((((((((((((((R  ))",
"   P((((((((((((((((((((((((((((((Y  ))",
"   P((((((((((((((((((((((((((((((Y  ))",
")  P((((((((((((((((((((((((((((((~  ))",
")  F(((((((((((((((((((((((((((((((  ))",
")  Z(((((((((((((((((((((((((((((((O ))",
")  z(((((((((((((((((((((((((((((((: ))",
")  u(((((((((((((((((((((((((((((((3 ))",
")  rY(((((((((((((((((((/!GCbhhvvgj- ))",
")       *=-36yaaapq661=*              )",
")                                    ))",
"))))))))                     ))))))))))"
};