/* XPM */
static char *result[] = {
/* columns rows colors chars-per-pixel */
"16 25 12 1 ",
"  c #282828",
". c #A00000",
"X c #C80018",
"o c #F82038",
"O c #A85000",
"+ c #E86050",
"@ c #E08030",
"# c #F09058",
"$ c #284880",
"% c #3870A8",
"& c #4898D0",
"* c None",
/* pixels */
"*****      *****",
"**** XooooX ****",
"*** X      X ***",
"**   XXXXXX   **",
"*  XXooooooXX  *",
" # XooXXXXooX # ",
" + .XXXXXXXX. + ",
"*  .XXXXXXXX.  *",
"**  .XXXXXX.  X ",
"* X ........ oX ",
" Xo  ......  oX ",
" .Xo        oX. ",
" .XXX       X. *",
" ..XX % X $ .. *",
"* ... % X $ . **",
" % . % ... $ ***",
"%%$ $%     %$ **",
"$$$$%%%%%&&%$ **",
" $$$$%%$ %%%$ **",
"* $$$$$  %%$$ **",
"**      $$$$ ***",
"* @@@OO $$$$ ***",
"**          @ **",
"******* OOO@@ **",
"********     ***"
};
