/* XPM */
static char *result[] = {
/* columns rows colors chars-per-pixel */
"16 27 14 1 ",
"  c #282828",
". c #A00000",
"X c #C80018",
"o c #F82038",
"O c #A85000",
"+ c #E86050",
"@ c #E08030",
"# c #F09058",
"$ c #284880",
"% c #3870A8",
"& c #4898D0",
"* c #F8B880",
"= c #F8F8F8",
"- c None",
/* pixels */
"------    ------",
"----  oooo  ----",
"--- oXXXXXXo ---",
"-- X.      .X --",
"-- .        . --",
"- .  ++++++  . -",
" ## +# ## #+ ## ",
" *# ## ## ## #* ",
" +++###**###+++ ",
"-  +# +##+ #+  -",
"-- +   ++   + --",
"--- +#    #+ ---",
"---  ++++++  ---",
"-- X        X --",
"- XX  XXXX  XX -",
"- ==  XooX  == -",
" ==== .XX. ==== ",
" *==*      *==* ",
"  ** ==&&== **  ",
"-   &==&&==&   -",
"-- $%%&&&&%%$ --",
"-- $$%%%%%%$$ --",
"-- $$$$$$$$$$ --",
"---          ---",
"---- O@@@@O ----",
"---- OOOOOO ----",
"-----      -----"
};
