/* XPM */
static char *_2222b401d7c44908e150b1813e0d74fSPq4qsVguA25r64i[] = {
/* columns rows colors chars-per-pixel */
"64 91 17 1 ",
"  c None",
". c #32184A",
"X c #2A3952",
"o c #46296A",
"O c #84394A",
"+ c #B55A4A",
"@ c #74DD7A",
"# c #DE945A",
"$ c #F7CE7D",
"% c #4D3994",
"& c #9373DD",
"* c #4B919C",
"= c #5BC692",
"- c #F7EF9D",
"; c #C7EEC7",
": c #FFFFCF",
"> c #F3FFE8",
/* pixels */
"                               *                                ",
"                              *=                                ",
"                              *=                                ",
"                             *=;*                               ",
"                             *=;*                               ",
"                            *@*>=                               ",
"                            *=;>>*                              ",
"*=                          *=>>;*                              ",
"*;=                        *@*>>;=                              ",
"*=;=                       *@*>>;=                              ",
"*=;*==                    *@=;>>;>*                            *",
"X==;**=                   *@=;>>;>=                          **X",
"X==;***=                 **=*>>>;>=                         **;X",
" *==;**=X                *@=*>>>>;>*                      ***;X ",
" *===>**=X               *@=;>>>>;;*                     *=*;@X ",
" *===>***=XX            *@@*;>>>;@;>                   **=**;=X ",
" X===@>**===X           *@=*>;>>;*;>*                 *==**;@*X ",
" X===*@>**==*X         **@*;>;>;@*@>*               **=***;@=X  ",
" X===*@>**===*X        **@*>;;>;=*@;*              *==X**;@==X  ",
"  *=**@;>**==**X       *@@*>@;;@=**;*            **;=X**;>@==X  ",
"  *=**@;;>*====*X     *=@**>@;=@=**;>*          *@;=****;@@=@X  ",
"  *=**=@;>*======XX   *==*X>=;@===*;>*        **@@=****;>@==@X  ",
"  *=*==@;;>***XXXXX  =*=**X;==@===*@;*       *@@@=X***;>@@=@X   ",
"  X**==@;;*=****XXX  =****X;=@===***;>*      X=@=X***;>>@==@X   ",
"  X**==@;*X=******X X*=**X>;;@===****>*     XX==X***;>>@@==@X   ",
"   **==@;XX*=*===*X XX==*X>>;=@@***;;=*     X*X=****;>>@==@@X   ",
"   **==;*XXX@=====X XXX**X>>;=**;;;===X     X*X*=**;>>@@==@@X   ",
"   *==;*XXX=@@=***++OXXXX==;;;;;=====*X     X*XX=*;>>>@==@@@X   ",
"   *=;****X===**++##$XX*Xo&&oXXXX*@==X      X**X=;>>>>@==@@X    ",
"   *;*X***@@*X=+#-$$#+XX*%&&%XX*=@@=X       X**X*;>>>@===@@X    ",
"   **XXX**=@**+#-$#++++X**%o**=@@@=X    +++OX*XX;@;>>@===@@X    ",
"    XXXXX==**+#-$#+++OOX**;=@@@@@=*XX  +#$O+X=XX=*;;;>>==@@X    ",
"       XXX=*+#-$#++OO..OX*@;=@@@=*X*=X+#$-OOX=X=*****;;;;;;X    ",
"          X+#-$#++O....XX**;==@=*X=@@=O$--O.X*X@**===*****X     ",
"           +$$#++O...XX*=X*@;==*X===@@O$:-#.X*=@@===****XX      ",
"          +#$#++O...X*===X*@;=*X=@@==*O$:-$O.X=@@@=*XXXX        ",
"          +#$++O...X*=====X*@*X=@@@==*O#$:-$OX===XXX+O          ",
"          +##++...X*===;;@=XXX>>>>>==**O#::-$OXXX..+#O          ",
"          O+++OOOOX*=;;;@==;;>>>>>;;==*O+#::-$OO...O+OO         ",
"           OOOOO...X;;;@@=;;>>>>>>;;==**O+#::--$#OOOO#O         ",
"              **XX.X*;=@==;>>>>>>>;;===**O+#$:------$#O         ",
"             *==**X.X*;==;;>>>>>>>>;;==***OO#$------$#O         ",
"            *;;==*XX.XX;;;>>>>>>>>>>;===*XXXOO#$$$$$#O          ",
"           *@;;@=**XXX*X=@;>>>>>>>>@@XXXX**X..OOOOOOO           ",
"          +*=@@=***XX.X**X===@@==********XX...**XX              ",
"          +X*==***XXX..X*XX@@>;;@@=@@***X....*===*X             ",
"         +#X*****XXXX..X**X=@@>;;@=@@@*X....*;>>@=**            ",
"         +:#X***XXXX..ooX*X=@@>;;@@==XX....*;>>>;==*X           ",
"         +:#OXXXXXX...oooX*=@@@>;;@=X*X....*;>>;;=**X           ",
"         O#-O.XXXXO..ooooXX*=@@>@=XX*=X....*@;;@==*XX           ",
"          O#-O....+O.oooX*X*=@@@=X*====X...*=====*+++O          ",
"          O+#-OOOO+O.ooX***X*==XX*=>>==X....X==*++$$$$O         ",
"         ++O+#$$$$#O.ooX*=**XXX*=;;;>>==X....X*+$:::--O         ",
"         +$+O+####+O.oooX==**;;>>>;;;;;=X.....+$::----$O        ",
"         O#$+OOOOOOOooooX*=*;>>>>>>;;;;X.....+$--$$$$$#O        ",
"          O+O++++OO.oooXX*=@;>>>>>>>;;=*X.oo+####++++#O         ",
"           O+###++O.oooXXX=@;>>>>;==**;=*Xoo+##++$--$OO         ",
"           O$-$#+OO.ooooXXX=;;;=***;;;;=*Xooo++#$::--+          ",
"           O$-$#+O..oooo.XXX=**;;;;;;=*XXooo+OO+#--$$O          ",
"           O+-#++O..oooo..X=;;;;;=*XXXX..ooo+###+###+O          ",
"            O##+OO..ooo....X***XXXX*X....oooO$$$#+++Oo          ",
"            XOOOOX..ooo...X*XXX**>=*;X...oooO$--$#OO.o          ",
"           X***XXXX.ooo..X**X**=>>==*;X..ooO#$--$#+O.o          ",
"           X*==XXXXXooo.X*=*X===>>@==*;X.ooO#$--$#O..o          ",
"           **@=XXX*=Xo.X*=@X*=;>>;;;@==;XooO#$-$#+O..oo         ",
"           *=X;XX=X*XoX*=@*X=;;>>;;;@==;;XoO+$$#+O...%o         ",
"           X=X@=X@=XXX*=@@*X;;>>>;;@@;==X**XO##+Oo...%o         ",
"           X==XX*X*XoX==@*X*;>>>;;;@@>>X@@;*XOOOXoo.o&o         ",
"            XX=X**XooX=@**X=;>>;;;;@;>X*@;;@*XXXXoo.o&oo        ",
"            o.XXXX.oo.X=**X;>>>;;;;>;>X=*>>;;**XXoo.o&%o        ",
"            o......oo.X*==*;>>>;;;;;==X;=>>;=@=*Xoo.o&%o        ",
"            o......o...XX*=;;;;;***=@@X=;>;=@==*Xoo.o&%o        ",
"           o%.....oo...XX*X*=***@@*@@@*X*=;=@==Xooo.o&%o        ",
"           o%.....oo....X**X*===@**@@*XXX****=*Xooo.o&%oo       ",
"           o%.....oo....XX*X*==@@**@@X*X.XXXXXXoooo.o&%oo       ",
"           o%.....o......X*X*=@@**@@*XX.....ooooooo.o&%oo       ",
"           o%.....o......XXXX=@@*=@@X*X......ooooo.%&&%%%o      ",
"           o%.....o.......X*X*@@*=@**X.......ooooo.%&&%%%o      ",
"          oo%.............XXX*@@*==**X........oooo.%&&%%%o      ",
"          o%%o..........   XXX@@*==*X    ......oo..%&&%%%o      ",
"          o%%o......       XXX@*===*X         ..o..%&&%%%o      ",
"          o%%o....          XX@*===X            ...%&&%%%o      ",
"          o%%o.             XX**==*X              .%&&&%o       ",
"          o%%o               X**==X                %&&&%o       ",
"          o%%%o              XX==*X                %&&&%o       ",
"          o%%%o               X*=X                 %&&&o        ",
"           o%%o               X**X                 %&&%o        ",
"            o%o                XX                 %&&%o         ",
"             oo                                   %&%o          ",
"              o                                   %%o           ",
"                                                  %o            "
};
