/* XPM */
static char *e1d8131740624d0cd15847c003a28a18hwvZwaniP3P1F6Ri[] = {
/* columns rows colors chars-per-pixel */
"64 64 8 1 ",
"  c None",
". c #162420",
"X c #282828",
"o c #263731",
"O c #343434",
"+ c #31453F",
"@ c #3C5950",
"# c gray26",
/* pixels */
"      ..    ..oo..          ..oo..          ..oo..      ....    ",
"      ..    ..oo..          ..oo..          ..oo..      ....    ",
"    ..@@....++oo++....    ..++oo++....    ..++oo++....  ..@@..  ",
"    ..@@....++oo++....    ..++oo++....    ..++oo++....  ..@@..  ",
"    ..++..++......++@@....++......++@@....++......++@@....++..  ",
"    ..++..++......++@@....++......++@@....++......++@@....++..  ",
"      ..@@..XXOOXX....++@@..XXOOXX....++@@..XXOOXX....++@@..    ",
"      ..@@..XXOOXX....++@@..XXOOXX....++@@..XXOOXX....++@@..    ",
"      ..++@@..OO####OO..++@@..OO####OO..++@@..OO####OO..++@@..  ",
"      ..++@@..OO####OO..++@@..OO####OO..++@@..OO####OO..++@@..  ",
"  ....++..oo@@..OOOO..++..oo@@..XX....++..oo++..XX....++..oo@@..",
"  ....++..oo@@..OOOO..++..oo@@..XX....++..oo++..XX....++..oo@@..",
"..@@++..XX..oo@@....++..XX....++..@@++..XX....XX..++@@..XX..++..",
"..@@++..XX..oo@@....++..XX....++..@@++..XX....XX..++@@..XX..++..",
"..@@..XX##XX..++..@@..XX##OO..++@@....XX##OOXXXXXX....XX##..++..",
"..@@..XX##XX..++..@@..XX##OO..++@@....XX##OOXXXXXX....XX##..++..",
"..@@..##OO..++....@@..##OOOO..oo..XXOO##OOXX....XXXXOO##OO..++..",
"..@@..##OO..++....@@..##OOOO..oo..XXOO##OOXX....XXXXOO##OO..++..",
"..++..OOXX..oo....++..OOXX..++oo++....OOXX..++..XX....OOXX..++..",
"..++..OOXX..oo....++..OOXX..++oo++....OOXX..++..XX....OOXX..++..",
"..++@@....oo..XXXX..@@....++......++@@....@@..XX..++@@....++..  ",
"..++@@....oo..XXXX..@@....++......++@@....@@..XX..++@@....++..  ",
"  ....++@@..XXOOXX....++@@..XXOOXX....++@@..XXOOXX....++@@....  ",
"  ....++@@..XXOOXX....++@@..XXOOXX....++@@..XXOOXX....++@@....  ",
"      ..++@@..OO####OO..++@@..OO####OO..++@@..OO####OO..++@@..  ",
"      ..++@@..OO####OO..++@@..OO####OO..++@@..OO####OO..++@@..  ",
"  ....++..oo@@..OOOO..++..oo@@..XX....++..oo@@..XX....++..oo@@..",
"  ....++..oo@@..OOOO..++..oo@@..XX....++..oo@@..XX....++..oo@@..",
"..@@++..XX..oo@@....++..XX....++..@@++..XX....++..@@++..XX..++..",
"..@@++..XX..oo@@....++..XX....++..@@++..XX....++..@@++..XX..++..",
"..@@..XX##XX..++..@@..XX##OO..++@@....XX##OO..++@@....XX##..++..",
"..@@..XX##XX..++..@@..XX##OO..++@@....XX##OO..++@@....XX##..++..",
"..@@..##OO..++....@@..##OOOO..oo..XXOO##OOOO..oo..XXOO##OO..++..",
"..@@..##OO..++....@@..##OOOO..oo..XXOO##OOOO..oo..XXOO##OO..++..",
"..++..OOXX..oo....++..OOXX..++oo++....OOXX..++oo++....OOXX..++..",
"..++..OOXX..oo....++..OOXX..++oo++....OOXX..++oo++....OOXX..++..",
"..++@@....oo..XXXX..@@....++......++@@....++......++@@....++..  ",
"..++@@....oo..XXXX..@@....++......++@@....++......++@@....++..  ",
"  ....++@@..XXOOXX....++@@..XXOOXX....++@@..XXOOXX....++@@..    ",
"  ....++@@..XXOOXX....++@@..XXOOXX....++@@..XXOOXX....++@@..    ",
"      ..++@@..OO####OO..++@@..OO####OO..++@@..OO####OO..++@@..  ",
"      ..++@@..OO####OO..++@@..OO####OO..++@@..OO####OO..++@@..  ",
"  ....++..oo@@..OOOO..++..oo++..XX....++..oo@@..XX....++..oo@@..",
"  ....++..oo@@..OOOO..++..oo++..XX....++..oo@@..XX....++..oo@@..",
"..@@++..XX..oo@@....++..XX....XX..++@@..XX....++..@@++..XX..++..",
"..@@++..XX..oo@@....++..XX....XX..++@@..XX....++..@@++..XX..++..",
"..@@..XX##XX..++..@@..XX##OOXXXXXX....XX##OO..++@@....XX##..++..",
"..@@..XX##XX..++..@@..XX##OOXXXXXX....XX##OO..++@@....XX##..++..",
"..@@..##OO..++....@@..##OOXX....XXXXOO##OOOO..oo..XXOO##OO..++..",
"..@@..##OO..++....@@..##OOXX....XXXXOO##OOOO..oo..XXOO##OO..++..",
"..++..OOXX..oo....++..OOXX..++..XX....OOXX..++oo++....OOXX..++..",
"..++..OOXX..oo....++..OOXX..++..XX....OOXX..++oo++....OOXX..++..",
"..++@@....oo..XXXX..@@....@@..XX..++@@....++......++@@....++..  ",
"..++@@....oo..XXXX..@@....@@..XX..++@@....++......++@@....++..  ",
"  ....++@@..XXOOXX....++@@..XXOOXX....++@@..XXOOXX....++@@..    ",
"  ....++@@..XXOOXX....++@@..XXOOXX....++@@..XXOOXX....++@@..    ",
"      ..++@@..OO####OO..++@@..OO####OO..++@@..OO####OO..++@@....",
"      ..++@@..OO####OO..++@@..OO####OO..++@@..OO####OO..++@@....",
"......++..oo@@..XX....++..oo@@..XX....++..oo@@..XX....++....++..",
"......++..oo@@..XX....++..oo@@..XX....++..oo@@..XX....++....++..",
"..++@@..  ....++..@@++..  ....++..@@++..  ....++..@@++..    ..  ",
"..++@@..  ....++..@@++..  ....++..@@++..  ....++..@@++..    ..  ",
"  ....      ..++@@....      ..++@@....      ..++@@....          ",
"  ....      ..++@@....      ..++@@....      ..++@@....          "
};
