/* XPM */
static char *ghostleft1736686512[] = {
/* columns rows colors chars-per-pixel */
"64 64 4 1 ",
"  c #FF0066",
". c #0054D5",
"X c white",
"o c None",
/* pixels */
"oooooooooooooooooooooooooooooooooooooooooooooooooooooooooooooooo",
"oooooooooooooooooooooooooooooooooooooooooooooooooooooooooooooooo",
"oooooooooooooooooooooooooooooooooooooooooooooooooooooooooooooooo",
"oooooooooooooooooooooooooooooooooooooooooooooooooooooooooooooooo",
"ooooooooooooooooooooooo                ooooooooooooooooooooooooo",
"ooooooooooooooooooooooo                ooooooooooooooooooooooooo",
"ooooooooooooooooooooooo                ooooooooooooooooooooooooo",
"ooooooooooooooooooooooo                ooooooooooooooooooooooooo",
"ooooooooooooooooo                              ooooooooooooooooo",
"ooooooooooooooooo                              ooooooooooooooooo",
"ooooooooooooooooo                              ooooooooooooooooo",
"ooooooooooooooooo                              ooooooooooooooooo",
"ooooooooooooo                                      ooooooooooooo",
"ooooooooooooo                                      ooooooooooooo",
"ooooooooooooo                                      ooooooooooooo",
"ooooooooooooo                                      ooooooooooooo",
"ooooooooo    XXXXXXXX              XXXXXXXX            ooooooooo",
"ooooooooo    XXXXXXXX              XXXXXXXX            ooooooooo",
"ooooooooo    XXXXXXXX              XXXXXXXX            ooooooooo",
"ooooooooo    XXXXXXXX              XXXXXXXX            ooooooooo",
"oooooooooXXXXXXXXXXXXXXXX      XXXXXXXXXXXXXXXX        ooooooooo",
"oooooooooXXXXXXXXXXXXXXXX      XXXXXXXXXXXXXXXX        ooooooooo",
"oooooooooXXXXXXXXXXXXXXXX      XXXXXXXXXXXXXXXX        ooooooooo",
"oooooooooXXXXXXXXXXXXXXXX      XXXXXXXXXXXXXXXX        ooooooooo",
"ooooooooo........XXXXXXXX      ........XXXXXXXX        ooooooooo",
"ooooooooo........XXXXXXXX      ........XXXXXXXX        ooooooooo",
"ooooooooo........XXXXXXXX      ........XXXXXXXX        ooooooooo",
"ooooooooo........XXXXXXXX      ........XXXXXXXX        ooooooooo",
"ooooo    ........XXXXXXXX      ........XXXXXXXX            ooooo",
"ooooo    ........XXXXXXXX      ........XXXXXXXX            ooooo",
"ooooo    ........XXXXXXXX      ........XXXXXXXX            ooooo",
"ooooo    ........XXXXXXXX      ........XXXXXXXX            ooooo",
"ooooo        XXXXXXXX              XXXXXXXX                ooooo",
"ooooo        XXXXXXXX              XXXXXXXX                ooooo",
"ooooo        XXXXXXXX              XXXXXXXX                ooooo",
"ooooo        XXXXXXXX              XXXXXXXX                ooooo",
"ooooo                                                      ooooo",
"ooooo                                                      ooooo",
"ooooo                                                      ooooo",
"ooooo                                                      ooooo",
"ooooo                                                      ooooo",
"ooooo                                                      ooooo",
"ooooo                                                      ooooo",
"ooooo                                                      ooooo",
"ooooo                                                      ooooo",
"ooooo                                                      ooooo",
"ooooo                                                      ooooo",
"ooooo                                                      ooooo",
"ooooo                                                      ooooo",
"ooooo                                                      ooooo",
"ooooo        oooo          oooooooo            oooo        ooooo",
"ooooo        oooo          oooooooo            oooo        ooooo",
"ooooo        oooo          oooooooo            oooo        ooooo",
"ooooo        oooo          oooooooo            oooo        ooooo",
"ooooo    oooooooooooo      oooooooo        oooooooooooo    ooooo",
"ooooo    oooooooooooo      oooooooo        oooooooooooo    ooooo",
"ooooo    oooooooooooo      oooooooo        oooooooooooo    ooooo",
"ooooo    oooooooooooo      oooooooo        oooooooooooo    ooooo",
"oooooooooooooooooooooooooooooooooooooooooooooooooooooooooooooooo",
"oooooooooooooooooooooooooooooooooooooooooooooooooooooooooooooooo",
"oooooooooooooooooooooooooooooooooooooooooooooooooooooooooooooooo",
"oooooooooooooooooooooooooooooooooooooooooooooooooooooooooooooooo",
"oooooooooooooooooooooooooooooooooooooooooooooooooooooooooooooooo",
"oooooooooooooooooooooooooooooooooooooooooooooooooooooooooooooooo"
};