/* XPM */
static char *pacman6__1_1736350207[] = {
/* columns rows colors chars-per-pixel */
"64 64 2 1 ",
"  c black",
". c yellow",
/* pixels */
"                                                                ",
"                          .............                         ",
"                      .....................                     ",
"                   ...........................                  ",
"                 ...............................                ",
"               ...................................              ",
"             .......................................            ",
"            .........................................           ",
"           ...........................................          ",
"          .............................................         ",
"         ...............................................        ",
"        .................................................       ",
"       ...................................................      ",
"      .....................................................     ",
"      .....................................................     ",
"      ......................................................    ",
"      ......................................................    ",
"       ......................................................   ",
"         ....................................................   ",
"           ...................................................  ",
"             .................................................  ",
"               ...............................................  ",
"                 .............................................. ",
"                   ............................................ ",
"                     .......................................... ",
"                       ........................................ ",
"                         .......................................",
"                           .....................................",
"                             ...................................",
"                               .................................",
"                                 ...............................",
"                                   .............................",
"                                     ...........................",
"                                   .............................",
"                                 ...............................",
"                               .................................",
"                             ...................................",
"                           .....................................",
"                         .......................................",
"                       ........................................ ",
"                     .......................................... ",
"                   ............................................ ",
"                 .............................................. ",
"               ...............................................  ",
"             .................................................  ",
"           ...................................................  ",
"         ....................................................   ",
"       ......................................................   ",
"      ......................................................    ",
"      ......................................................    ",
"      .....................................................     ",
"      .....................................................     ",
"       ...................................................      ",
"        .................................................       ",
"         ...............................................        ",
"          .............................................         ",
"           ...........................................          ",
"            .........................................           ",
"             .......................................            ",
"               ...................................              ",
"                 ...............................                ",
"                   ...........................                  ",
"                      .....................                     ",
"                          .............                         "
};